<?xml version="1.0" encoding="UTF-8"?>
<svg width="115px" height="50px" viewBox="0 0 115 50" version="1.1" xmlns="http://www.w3.org/2000/svg" xmlns:xlink="http://www.w3.org/1999/xlink">
    <!-- Generator: Sketch 41.2 (35397) - http://www.bohemiancoding.com/sketch -->
    <title>aguila-golf-logo</title>
    <desc>Created with Sketch.</desc>
    <defs>
        <polygon id="path-1" points="8.72821736e-21 0.0668922078 8.72821736e-21 28.2184858 25.8261332 28.2184858 25.8261332 0.0668922078 0 0.0668922078"></polygon>
        <polygon id="path-3" points="16.1998996 22.2708345 16.1998996 0.050243379 0.0171311652 0.050243379 0.0171311652 22.2708345 16.1998996 22.2708345"></polygon>
        <polygon id="path-5" points="-9.09494702e-13 48.9404768 109.798747 48.9404768 109.798747 0 -9.09494702e-13 0"></polygon>
    </defs>
    <g id="Page-1" stroke="none" stroke-width="1" fill="none" fill-rule="evenodd">
        <g id="aguila-golf-logo">
            <g id="Logo-Copy">
                <g id="Group-3" transform="translate(-0.000000, 13.084975)">
                    <mask id="mask-2" fill="white">
                        <use xlink:href="#path-1"></use>
                    </mask>
                    <g id="Clip-2"></g>
                    <path d="M8.43692713,17.4533851 C9.25291157,15.0433016 10.0373386,12.8090699 10.7897789,10.75069 C11.5417898,8.69299525 12.2113651,6.94612431 12.7982899,5.51030557 C13.3590243,6.89154173 14.0225886,8.62516669 14.7876948,10.7102669 C15.552801,12.7958239 16.3430243,15.0433016 17.1596527,17.4533851 L8.43692713,17.4533851 Z M20.3355733,12.6599384 C19.4807324,10.3850552 18.6331906,8.21865207 17.791445,6.16050057 C16.949914,4.10257744 16.0824073,2.07137465 15.1899981,0.0668922078 L10.5884126,0.0668922078 C9.69643272,2.07137465 8.82978467,4.10257744 7.9886831,6.16050057 C7.14758153,8.21865207 6.30046903,10.3850552 5.44691623,12.6599384 C4.59336344,14.9348216 3.72048979,17.3455902 2.82872462,19.8908742 C1.93674478,22.4366148 0.993457309,25.2125615 -6.4402876e-05,28.2184858 L5.01284085,28.2184858 C5.37027681,27.135741 5.73501177,26.0452313 6.10575766,24.948327 C6.47628888,23.8516511 6.84080916,22.734421 7.19888916,21.5970936 L18.3976907,21.5970936 C18.7551267,22.734421 19.1258726,23.8450281 19.509499,24.9280013 C19.8933402,26.0116596 20.2638714,27.1083355 20.6219514,28.2184858 L25.8261332,28.2184858 C24.8315381,25.2125615 23.8809516,22.4366148 22.9760912,19.8908742 C22.0703721,17.3455902 21.1904141,14.9348216 20.3355733,12.6599384 L20.3355733,12.6599384 Z" id="Fill-1" fill="#0072BB" mask="url(#mask-2)"></path>
                </g>
                <path d="M62.5901719,37.2411918 C62.2840436,37.3222664 61.8184108,37.3903233 61.1937029,37.4444492 C60.5685656,37.4988034 59.9754151,37.5255237 59.4148954,37.5255237 C57.8589219,37.5255237 56.7685812,37.0379345 56.1438733,36.063213 C55.5185214,35.0880347 55.2063821,33.4633465 55.2063821,31.1884633 L55.2063821,20.0577278 L50.577318,20.0577278 L50.577318,31.960156 C50.577318,33.3959747 50.7172869,34.7162337 50.9980834,35.9209329 C51.2786653,37.1263172 51.7442981,38.162016 52.3945525,39.0284859 C53.0450215,39.8956409 53.9116696,40.5723279 54.9959993,41.0596887 C56.0798998,41.5470494 57.4252759,41.7909582 59.0323423,41.7909582 C60.740736,41.7909582 62.3091607,41.6619241 63.7380458,41.4049977 C65.1658576,41.1478429 66.3261828,40.8973112 67.219236,40.6534024 L67.219236,20.0577278 L62.5901719,20.0577278 L62.5901719,37.2411918 Z" id="Fill-4" fill="#0072BB"></path>
                <g id="Group-8" transform="translate(93.598848, 19.479586)">
                    <mask id="mask-4" fill="white">
                        <use xlink:href="#path-3"></use>
                    </mask>
                    <g id="Clip-7"></g>
                    <path d="M11.7238567,18.127126 C10.9838677,18.2897319 9.90018195,18.3708064 8.4721555,18.3708064 C7.29852041,18.3708064 6.36789884,18.1474517 5.67921741,17.7007424 C4.99053598,17.2538047 4.64619527,16.448312 4.64619527,15.2835791 C4.64619527,14.6881951 4.77349829,14.1937546 5.02874836,13.8009427 C5.28356907,13.4085876 5.62168417,13.10393 6.04266431,12.88697 C6.46342977,12.6702383 6.93507351,12.5213352 7.45823954,12.4400323 C7.98054687,12.3587293 8.49727262,12.3180779 9.00777276,12.3180779 C9.59405361,12.3180779 10.1294562,12.3587293 10.6144099,12.4400323 C11.0985048,12.5213352 11.4688214,12.6026381 11.7238567,12.6837127 L11.7238567,18.127126 Z M15.7981974,5.02639331 C15.5302814,3.98407158 15.0839695,3.09681918 14.4592616,2.36554964 C13.8339097,1.63428009 12.998819,1.06561639 11.9533457,0.659558539 C10.9072283,0.253043927 9.61960009,0.050243379 8.08938773,0.050243379 C6.81378142,0.050243379 5.61524389,0.158495023 4.4931311,0.37522669 C3.37058896,0.592186735 2.51639213,0.808690023 1.9298966,1.02496493 L2.50394091,5.00606758 C3.06446062,4.78956429 3.79156909,4.60000973 4.68462232,4.43740388 C5.57703151,4.27479804 6.55896071,4.19349512 7.6304099,4.19349512 C8.42041852,4.19349512 9.07754254,4.30220352 9.6004939,4.51847843 C10.1230159,4.73566685 10.5437814,5.04032443 10.863005,5.43267955 C11.1817992,5.82549142 11.4046332,6.27928048 11.5325802,6.7933616 C11.6598832,7.30812786 11.7238567,7.84961445 11.7238567,8.41827815 L11.7238567,9.23085062 C11.0860536,9.06824477 10.4864628,8.95337014 9.92572843,8.88554158 C9.36456469,8.81816977 8.82894744,8.78391293 8.31909133,8.78391293 C7.22209566,8.78391293 6.16996733,8.8994727 5.16292102,9.12945035 C4.15480132,9.35965637 3.26904709,9.73876551 2.50394091,10.2667777 C1.73862006,10.79479 1.13258899,11.4790135 0.686706407,12.3180779 C0.240179795,13.1578274 0.0171311652,14.1866748 0.0171311652,15.4055335 C0.0171311652,16.6787464 0.214418644,17.7482453 0.610066984,18.6147152 C1.00507129,19.4818702 1.55335445,20.1857343 2.25534581,20.7269925 C2.95626378,21.2691642 3.80444967,21.6615193 4.79925944,21.9051997 C5.79406921,22.1486517 6.89020617,22.2708345 8.08938773,22.2708345 C9.90018195,22.2708345 11.5259252,22.1552747 12.9672616,21.9255255 C14.407954,21.6955478 15.4856288,21.4989135 16.2000714,21.336536 L16.2000714,8.45892961 C16.2000714,7.21357895 16.0661134,6.06917181 15.7981974,5.02639331 L15.7981974,5.02639331 Z" id="Fill-6" fill="#0072BB" mask="url(#mask-4)"></path>
                </g>
                <path d="M88.8339148,36.6521796 C88.6044259,36.3678477 88.4449214,36.0225387 88.3556161,35.6162525 C88.2658814,35.2101946 88.2216581,34.7091311 88.2216581,34.1132903 L88.2216581,9.78019346 L83.592594,10.5927659 L83.592594,35.0475888 C83.592594,36.1038416 83.7007909,37.0452198 83.9178286,37.8708099 C84.1340075,38.6973135 84.5107644,39.3879316 85.0463816,39.9424358 C85.5819989,40.4980819 86.3022377,40.9244655 87.2079569,41.2222717 C88.1130319,41.5198495 89.2546803,41.682227 90.6320431,41.7098608 L91.2822975,37.6472269 C90.6702555,37.5661523 90.1664103,37.4512777 89.7711913,37.3021462 C89.3753283,37.1534715 89.0634037,36.9365114 88.8339148,36.6521796" id="Fill-9" fill="#0072BB"></path>
                <mask id="mask-6" fill="white">
                    <use xlink:href="#path-5"></use>
                </mask>
                <g id="Clip-12"></g>
                <polygon id="Fill-11" fill="#0072BB" mask="url(#mask-6)" points="73.1490021 41.3034832 77.7780662 41.3034832 77.7780662 20.057842 73.1490021 20.057842"></polygon>
                <path d="M40.2861676,35.0474974 C39.8778534,35.3459888 39.3488911,35.6029151 38.698422,35.8194184 C38.0481677,36.0363785 37.3528313,36.1444017 36.6134862,36.1444017 C35.2612405,36.1444017 34.1584486,35.6638923 33.3042518,34.7021884 C32.4494109,33.7411696 32.0226345,32.2178817 32.0226345,30.1323247 C32.0226345,28.2096019 32.4685171,26.6591369 33.3615703,25.4809297 C34.2539795,24.3027224 35.5422517,23.713733 37.2255282,23.713733 C37.9650879,23.713733 38.57713,23.7479898 39.0618689,23.8153617 C39.5461786,23.8831902 39.9544928,23.9574134 40.2861676,24.0387163 L40.2861676,35.0474974 Z M37.1873159,19.6109043 C35.6313424,19.6109043 34.2415283,19.8685159 33.0172296,20.3828253 C31.7929309,20.8975916 30.7534685,21.6153868 29.8992717,22.5357541 C29.0444308,23.4568066 28.3939618,24.5667285 27.9480792,25.8668902 C27.5015526,27.166595 27.2787186,28.5884827 27.2787186,30.1323247 C27.2787186,31.7844183 27.4891013,33.2398777 27.9098668,34.4991594 C28.3308469,35.7584412 28.9171278,36.8082995 29.6697827,37.6473639 C30.4217937,38.4873418 31.3272981,39.1238341 32.3860814,39.5566123 C33.444006,39.990304 34.6109861,40.2065789 35.8865924,40.2065789 C36.8556411,40.2065789 37.7162782,40.0848529 38.4689331,39.8409441 C39.220944,39.5972638 39.8269751,39.353355 40.2861676,39.109903 L40.2861676,39.9222471 C40.2861676,41.5199865 39.8905193,42.7251425 39.100296,43.5377149 C38.3094287,44.350059 36.9829441,44.7563453 35.1214863,44.7563453 C33.9480659,44.7563453 32.8577251,44.6478652 31.8504642,44.431362 C30.8425591,44.2144019 29.943495,43.9300701 29.1532717,43.5783664 L28.3115261,47.762498 C29.2548135,48.1142016 30.3069419,48.3985335 31.4679111,48.6154935 C32.6282362,48.8319968 33.8207628,48.9404768 35.0448468,48.9404768 C38.3858534,48.9404768 40.8660082,48.1548531 42.4859552,46.5845191 C44.1054729,45.0135 44.9152317,42.5353595 44.9152317,39.1505544 L44.9152317,20.7484601 C43.9715149,20.4780594 42.823641,20.2202195 41.4720393,19.9765391 C40.1200082,19.7326303 38.6919818,19.6109043 37.1873159,19.6109043 L37.1873159,19.6109043 Z" id="Fill-13" fill="#0072BB" mask="url(#mask-6)"></path>
                <path d="M62.5901719,31.6578278 C64.151727,31.5402127 65.6952493,31.4107218 67.219236,31.2700403 L67.219236,20.0577735 L62.5901719,20.0577735 L62.5901719,31.6578278 Z" id="Fill-14" fill="#4C9ED0" mask="url(#mask-6)"></path>
                <path d="M55.2064894,31.1884633 L55.2064894,20.0577278 L50.5774253,20.0577278 L50.5774253,31.960156 C50.5774253,32.0793698 50.5797868,32.1967566 50.5817188,32.3143718 C52.1434886,32.260246 53.6919484,32.1947012 55.2262396,32.1179658 C55.2135737,31.8208448 55.2064894,31.5120764 55.2064894,31.1884633" id="Fill-15" fill="#4C9ED0" mask="url(#mask-6)"></path>
                <path d="M73.1489377,30.6545361 C74.716933,30.4732032 76.2604553,30.2795378 77.7780018,30.0739967 L77.7780018,20.0577507 L73.1489377,20.0577507 L73.1489377,30.6545361 Z" id="Fill-16" fill="#4C9ED0" mask="url(#mask-6)"></path>
                <path d="M83.592594,29.2085545 C85.1698205,28.9516281 86.7135574,28.6812274 88.2216581,28.3980374 L88.2216581,9.78012494 L83.592594,10.5926974 L83.592594,29.2085545 Z" id="Fill-17" fill="#4C9ED0" mask="url(#mask-6)"></path>
                <path d="M108.058131,21.8452274 C107.432779,21.1139579 106.597688,20.5452942 105.552215,20.1390079 C104.506097,19.7327217 103.218469,19.5296928 101.688257,19.5296928 C100.41265,19.5296928 99.2141129,19.6381728 98.0920001,19.8546761 C96.9694579,20.0716361 96.1152611,20.2883678 95.5287656,20.5046427 L96.1028099,24.4857454 C96.6633296,24.2690137 97.3904381,24.0794591 98.2834913,23.9168533 C99.1759005,23.7542474 100.15783,23.6731729 101.229064,23.6731729 C102.019288,23.6731729 102.676412,23.7816529 103.199363,23.9981562 C103.541342,24.1402079 103.835449,24.324053 104.090484,24.5410131 C105.744135,24.0244198 107.312989,23.4877291 108.793182,22.9325398 C108.583873,22.5390428 108.340001,22.1752351 108.058131,21.8452274" id="Fill-18" fill="#4C9ED0" mask="url(#mask-6)"></path>
                <path d="M37.1872944,19.61095 C35.6313209,19.61095 34.2415068,19.8685615 33.0172081,20.382871 C31.7931241,20.8976373 30.753447,21.6152041 29.8992502,22.5357998 C29.0444093,23.4568523 28.394155,24.5667742 27.9480577,25.8669358 C27.5015311,27.1666407 27.2786971,28.5885283 27.2786971,30.132142 C27.2786971,30.8855643 27.3246379,31.5960513 27.4122258,32.2674856 C29.0076997,32.3293763 30.6173423,32.3793913 32.2400801,32.4170738 C32.0958176,31.7499788 32.022613,30.9892483 32.022613,30.132142 C32.022613,28.2094192 32.4684956,26.6589542 33.3615489,25.4809753 C34.253958,24.3027681 35.5422303,23.7137787 37.2255068,23.7137787 C37.9650665,23.7137787 38.5771085,23.7480355 39.0618475,23.8154073 C39.5461571,23.8832359 39.9544713,23.9574591 40.2861462,24.038762 L40.2861462,32.501574 C41.8393289,32.4986051 43.3828511,32.4842172 44.9154249,32.4590955 L44.9154249,20.7482774 C43.9714934,20.4781051 42.8236195,20.2202652 41.4720178,19.9765848 C40.1199867,19.732676 38.6919603,19.61095 37.1872944,19.61095" id="Fill-19" fill="#4C9ED0" mask="url(#mask-6)"></path>
                <polygon id="Fill-20" fill="#4C9ED0" mask="url(#mask-6)" points="18.9769302 4.78371779 16.069355 1.89929108 10.4454811 9.00827245 12.7410143 11.2020811"></polygon>
                <path d="M77.8713859,10.4742372 C77.8816904,10.4742372 77.8919949,10.4799467 77.902514,10.4906805 C77.9123891,10.5018711 77.9280605,10.5128333 77.9486694,10.5235671 C77.9795828,10.5457198 78.0336812,10.5975619 78.1109646,10.6797783 C78.1884628,10.7619948 78.2369796,10.8195463 78.2578032,10.8524328 C78.2681077,10.89651 78.2732599,10.9239155 78.2732599,10.9346493 C78.2732599,10.9456115 78.2706838,10.9593142 78.2655315,10.9757575 C78.2603793,10.9922008 78.2578032,11.0061319 78.2578032,11.0168657 C78.2062809,11.0390185 78.1032363,11.0689361 77.9486694,11.1073038 C77.7943172,11.1458998 77.6910579,11.1705648 77.6395356,11.1812986 L77.5624668,11.1812986 L77.4849687,11.1812986 C77.6292311,11.1047916 77.7296996,11.0061319 77.7863741,10.8853194 C77.842834,10.7647353 77.8713859,10.6279363 77.8713859,10.4742372 L77.8713859,10.4742372 Z M77.6086222,10.3098043 C77.64984,10.3209949 77.7013623,10.3372098 77.7631891,10.3591342 C77.7631891,10.4689845 77.7219713,10.5235671 77.6395356,10.5235671 C77.5568852,10.5235671 77.4643598,10.4413506 77.3613152,10.2769178 C77.4746642,10.2221068 77.5568852,10.2332974 77.6086222,10.3098043 L77.6086222,10.3098043 Z M75.6303805,15.5387698 C75.6303805,15.6812783 75.6739598,15.8157935 75.7615477,15.9416304 C75.8489209,16.0676956 75.9648461,16.1307282 76.1093232,16.1307282 C76.2535857,16.1307282 76.3643586,16.08962 76.4416421,16.0074035 C76.5189255,15.9251871 76.6090896,15.7963813 76.7123488,15.6209863 L76.6348507,15.6209863 L76.5575673,15.6209863 C76.5472628,15.6209863 76.5189255,15.6292079 76.4725555,15.6456512 C76.4264001,15.6620945 76.3772392,15.6812783 76.3257169,15.7032027 C76.2741946,15.7253555 76.2252484,15.7443109 76.1788783,15.7607542 C76.1325083,15.7771975 76.104171,15.7854191 76.0940812,15.7854191 C76.0730429,15.7854191 76.0399828,15.7717164 75.9933981,15.7443109 C75.947028,15.7171338 75.8980818,15.6842472 75.8465595,15.6456512 C75.7948225,15.6075119 75.7484524,15.5716564 75.7074493,15.5387698 C75.6662314,15.5058833 75.6402556,15.4787062 75.6303805,15.4565534 L75.6303805,15.5387698 Z M75.9392996,12.7269676 C76.0526487,12.7269676 76.1299322,12.7491204 76.17115,12.7927408 C76.2121532,12.8365896 76.2430665,12.8888883 76.2641048,12.948952 C76.2842844,13.0094725 76.3076841,13.0615429 76.3334452,13.1051633 C76.3589917,13.149012 76.4081526,13.1709364 76.4804985,13.1709364 C76.5833284,13.1709364 76.6760685,13.0999105 76.7585042,12.9571737 C76.8409399,12.8148935 76.9156472,12.6504607 76.9826262,12.463875 C77.0496052,12.2775178 77.111432,12.0939011 77.1683212,11.9130249 C77.2245664,11.7321487 77.2786648,11.5980903 77.3304018,11.5101643 C77.3404916,11.5101643 77.3535868,11.5076522 77.3690435,11.5019427 C77.3845002,11.49669 77.3973808,11.4937211 77.4076852,11.4937211 C77.4179897,11.4937211 77.4437508,11.4994305 77.4849687,11.5101643 C77.5261865,11.5323171 77.6060461,11.5841591 77.7245474,11.6663756 C77.842834,11.748592 77.917756,11.8061435 77.9486694,11.8390301 L77.9486694,11.7568137 L77.9486694,11.6745972 C77.9383649,11.6529012 77.9151799,11.5980903 77.8791143,11.5101643 C77.842834,11.4224668 77.8147114,11.3678842 77.7943172,11.3457315 L77.8713859,11.3457315 L77.9486694,11.3457315 L78.2578032,11.5101643 C78.2681077,11.5211265 78.2938688,11.5430509 78.3350867,11.5759375 C78.3763045,11.6088241 78.4252507,11.6446796 78.4821399,11.6828189 C78.5383851,11.7214149 78.5903367,11.7568137 78.6364921,11.7897002 C78.6828622,11.8225868 78.7111995,11.8390301 78.7215039,11.8390301 C78.7421128,11.8390301 78.791059,11.7979219 78.8685571,11.7157054 C78.9456259,11.633489 78.9997243,11.5652037 79.0306377,11.5101643 C79.0407275,11.466544 79.0463091,11.4391385 79.0463091,11.4279479 C79.0463091,11.2964016 78.9789007,11.1511526 78.8451574,10.9922008 C78.7111995,10.8334774 78.5514803,10.6797783 78.3662147,10.5317887 C78.1805197,10.3837991 77.9898872,10.2604745 77.7943172,10.1618148 C77.5983177,10.063155 77.4385986,10.0138252 77.3149451,10.0138252 C77.1294648,10.0138252 76.9386176,10.0549334 76.7430475,10.1371498 C76.5472628,10.2193663 76.3540542,10.318026 76.1634216,10.433129 C75.9725745,10.548232 75.7924611,10.6742972 75.6224375,10.8113246 C75.4524139,10.9485804 75.3002084,11.0719051 75.1664651,11.1812986 C75.1664651,11.2034514 75.163889,11.2582623 75.1587368,11.3457315 C75.1535845,11.4336574 75.1510084,11.48824 75.1510084,11.5101643 C75.1510084,11.6088241 75.1613129,11.6885283 75.1821365,11.748592 C75.2025307,11.8088841 75.2282919,11.8664356 75.2592053,11.9212465 C75.2903333,11.9762859 75.3158798,12.0338374 75.3364887,12.0939011 C75.3570976,12.1541931 75.3674021,12.233669 75.3674021,12.3323287 L75.6303805,12.3323287 L75.6303805,12.4967616 L75.9392996,12.4967616 L75.9392996,12.7269676 Z M73.3118769,16.7720164 C73.3118769,16.7941692 73.3320565,16.8270557 73.373489,16.8706761 C73.4144922,16.9145249 73.4456203,16.9364493 73.4662292,16.9364493 C73.5381457,16.9364493 73.6259483,16.9257155 73.7289929,16.9035627 C73.8320375,16.8818667 73.9350821,16.8489801 74.0383414,16.804903 C74.1409566,16.7612826 74.2390637,16.7089838 74.3320185,16.6486917 C74.424544,16.5886281 74.4964605,16.5201144 74.5484122,16.4431506 C74.4657618,16.4653034 74.3755978,16.4678156 74.2779201,16.4513723 C74.179813,16.434929 74.1154102,16.3773775 74.0844968,16.2787178 C74.0638879,16.28968 74.0175178,16.3116043 73.9453866,16.3444909 C73.8732554,16.3773775 73.7959719,16.4159735 73.7135362,16.4595939 C73.6308859,16.5034427 73.551241,16.5527726 73.4741722,16.6075835 C73.3966741,16.6626229 73.3425756,16.7172054 73.3118769,16.7720164 L73.3118769,16.7720164 Z M73.6207961,15.7854191 C73.5381457,15.8404585 73.4662292,15.9226749 73.4044024,16.0320685 C73.3425756,16.1416904 73.3118769,16.2515407 73.3118769,16.3609342 L73.3118769,16.4431506 C73.3837935,16.4214546 73.4819005,16.3748653 73.6053394,16.3033827 C73.7289929,16.2321285 73.7908197,16.1416904 73.7908197,16.0320685 C73.7908197,16.0213346 73.7856674,15.9937008 73.775363,15.949852 C73.7650585,15.9279276 73.7418735,15.89801 73.7060225,15.8594139 C73.6697423,15.8212746 73.641405,15.7963813 73.6207961,15.7854191 L73.6207961,15.7854191 Z M73.1570954,15.4565534 L72.2299086,16.4431506 C72.2500882,16.4543412 72.3018252,16.4623345 72.3842608,16.4678156 C72.4666965,16.4735251 72.5180041,16.4760372 72.5388277,16.4760372 C72.6418723,16.4760372 72.7421262,16.4431506 72.8402332,16.3773775 C72.9381256,16.3116043 73.0259282,16.2293879 73.1029969,16.1307282 C73.1802804,16.0320685 73.239531,15.9226749 73.2807489,15.8018624 C73.3219667,15.6812783 73.3425756,15.5661753 73.3425756,15.4565534 L73.1570954,15.4565534 Z M71.4568594,15.949852 C71.4879875,16.0377779 71.528776,16.08962 71.5805129,16.1060633 C71.6320352,16.1225065 71.693862,16.1307282 71.7662079,16.1307282 C71.8898614,16.1307282 72.0133003,16.0925889 72.1369538,16.0156252 C72.2606073,15.9391182 72.3765325,15.8486801 72.4847293,15.7443109 C72.5929262,15.6403985 72.6908185,15.5305482 72.7784064,15.4154452 C72.8659944,15.3003422 72.9407017,15.204423 73.0025285,15.1276876 C72.9920093,15.1276876 72.969039,15.1251755 72.9329734,15.119466 C72.8966931,15.1139849 72.8685705,15.1112443 72.8481762,15.1112443 C72.7343978,15.1112443 72.6083829,15.1498404 72.4692726,15.2263474 C72.3301624,15.3033111 72.1936283,15.3882681 72.059885,15.4812183 C71.9257124,15.5746253 71.804635,15.667804 71.6964381,15.7607542 C71.5882413,15.8541612 71.5083817,15.9169654 71.4568594,15.949852 L71.4568594,15.949852 Z M71.3022925,9.53696982 C71.3229014,9.48215887 71.2971403,9.45475339 71.2250091,9.45475339 C71.1631823,9.45475339 71.1374211,9.48215887 71.1479403,9.53696982 C71.1580301,9.59200916 71.1837912,9.61918626 71.2250091,9.61918626 C71.2561371,9.61918626 71.2816836,9.59200916 71.3022925,9.53696982 L71.3022925,9.53696982 Z M70.6842396,15.4565534 C70.7046338,15.4787062 70.7559414,15.5086238 70.8385918,15.5469915 C70.9210275,15.5855875 70.9723351,15.6102525 70.9931587,15.6209863 L71.0704422,15.6209863 L71.1479403,15.6209863 C71.1887288,15.5990619 71.268803,15.5579537 71.3873043,15.4976616 C71.5058056,15.4375979 71.6294591,15.3718248 71.7582649,15.3003422 C71.8870706,15.2290879 72.0107242,15.1633148 72.1292255,15.1030227 C72.2477267,15.042959 72.3325239,14.9961413 72.3842608,14.9632548 C72.4048698,14.9525209 72.433207,14.927856 72.4692726,14.88926 C72.5053383,14.8511207 72.5285233,14.8209746 72.5388277,14.7988219 C72.5285233,14.7988219 72.5053383,14.7963097 72.4692726,14.7906002 C72.433207,14.7851191 72.4048698,14.7823786 72.3842608,14.7823786 C72.2606073,14.7823786 72.1111926,14.7935692 71.9362315,14.8152652 C71.7606263,14.8374179 71.5882413,14.8755572 71.4182177,14.9303682 C71.2481941,14.9854075 71.0959886,15.0536928 70.9622453,15.1359093 C70.8282873,15.2181257 70.7355472,15.3250071 70.6842396,15.4565534 L70.6842396,15.4565534 Z M70.529458,7.89264106 L70.6842396,8.05707393 L70.6842396,7.89264106 L70.529458,7.89264106 Z M70.065972,14.634389 L70.2203242,14.7988219 C70.230414,14.7988219 70.2922407,14.8015624 70.4060191,14.8070435 C70.5191535,14.812753 70.6015892,14.8152652 70.6531115,14.8152652 C70.9210275,14.8152652 71.1940957,14.7988219 71.4723161,14.7659353 C71.7505365,14.7330487 72.0029958,14.634389 72.2299086,14.4699561 C72.2088703,14.4480317 72.1575627,14.4181141 72.075127,14.379518 C71.9924767,14.3413788 71.9411691,14.3164854 71.9205601,14.3055233 L71.8587334,14.3055233 C71.5805129,14.3055233 71.2791075,14.3384098 70.954517,14.404183 C70.6301412,14.4699561 70.3336732,14.5469198 70.065972,14.634389 L70.065972,14.634389 Z M69.4477043,1.80862462 C69.3959674,1.78670023 69.3702062,1.81433409 69.3702062,1.89084106 C69.3702062,1.95661421 69.4114241,2.04454012 69.4940744,2.15393366 C69.5762954,2.24185957 70.0348439,3.05831448 70.8697199,4.60398352 C70.8898994,4.62613628 70.9105083,4.64783229 70.9313319,4.66975667 C70.9519409,4.69190944 70.9723351,4.72479601 70.9931587,4.7684164 C71.0755944,4.7684164 71.1168122,4.71360544 71.1168122,4.60398352 C71.0755944,4.53821037 71.0341619,4.48362779 70.9931587,4.43955065 L69.7720802,2.18682023 C69.5966897,1.94588039 69.4884928,1.81958681 69.4477043,1.80862462 L69.4477043,1.80862462 Z M69.2929228,1.47975886 C69.2414005,1.45806286 69.215854,1.48546834 69.215854,1.5619753 C69.215854,1.63871064 69.2414005,1.6663445 69.2929228,1.64419174 C69.3444451,1.62226736 69.3702062,1.59486188 69.3702062,1.5619753 C69.3702062,1.52908873 69.3444451,1.50191163 69.2929228,1.47975886 L69.2929228,1.47975886 Z M68.9840036,2.630789 C68.932052,2.609093 68.9065055,2.63649848 68.9065055,2.71300544 C68.9065055,2.78996916 68.932052,2.81737464 68.9840036,2.79522188 C69.0353113,2.77329749 69.0610724,2.74589201 69.0610724,2.71300544 C69.0610724,2.68011886 69.0353113,2.65294176 68.9840036,2.630789 L68.9840036,2.630789 Z M73.0025285,17.265315 C72.8994839,17.3310882 72.8273526,17.358722 72.7863495,17.3475315 C72.744917,17.3367977 72.7114275,17.3064233 72.685881,17.2570934 C72.6599052,17.2077635 72.6392962,17.150212 72.6240542,17.0844389 C72.6083829,17.0186657 72.5800456,16.9693359 72.5388277,16.9364493 C72.5180041,16.9257155 72.477001,16.9145249 72.4151742,16.9035627 C72.3533475,16.8928289 72.2889446,16.8788978 72.2221803,16.8624545 C72.1547719,16.8460112 72.0905837,16.8295679 72.028757,16.8131246 C71.9669302,16.7966813 71.9306499,16.783207 71.9205601,16.7720164 C71.5392951,16.5968497 71.2327374,16.3883397 71.0008871,16.1471715 C70.7690367,15.9062316 70.5086344,15.6209863 70.2203242,15.2921205 C70.1685872,15.2373096 70.1067604,15.1633148 70.0348439,15.0701361 C69.9627127,14.9771859 69.8931576,14.8867478 69.8261786,14.7988219 C69.7591996,14.7111243 69.6844922,14.6015024 69.6020566,14.4699561 L69.7566235,14.3055233 L71.9205601,13.9766575 L72.8481762,13.318926 C72.744917,13.2860394 72.5901354,13.1818986 72.3842608,13.0065035 C72.177957,12.8313368 71.9720824,12.6310485 71.7662079,12.4063235 C71.559904,12.181827 71.3797906,11.9541331 71.2250091,11.7239271 C71.0704422,11.4937211 70.9931587,11.3128449 70.9931587,11.1812986 C70.9931587,11.1593742 71.0137676,11.1264876 71.0549855,11.0826389 C71.0959886,11.0390185 71.1271167,11.0168657 71.1479403,11.0168657 C70.9416364,10.8524328 70.7844934,10.6169741 70.6762966,10.3098043 C70.5680997,10.0030914 70.514216,9.71784599 70.514216,9.45475339 C70.514216,9.432829 70.5163627,9.39172078 70.5219443,9.33142873 C70.5268819,9.27136505 70.529458,9.23025683 70.529458,9.20810407 C70.5500669,9.23025683 70.6015892,9.26040286 70.6842396,9.29854215 C70.7664606,9.3371382 70.8179829,9.36180314 70.8385918,9.37253695 L70.9160899,9.37253695 L70.9931587,9.37253695 C70.8798096,9.27387722 70.7587322,9.16151476 70.6301412,9.03544955 C70.5011207,8.90961272 70.3826194,8.76984478 70.2744226,8.61614571 C70.1662258,8.46267503 70.0758471,8.30372325 70.0041452,8.13929037 C69.9317993,7.9748575 69.8959484,7.81042462 69.8959484,7.64599174 C69.8959484,7.62429574 69.8980951,7.58295914 69.9036767,7.52266708 C69.9086143,7.46260341 69.9111904,7.42149519 69.9111904,7.39934243 L70.3748911,7.72820818 C70.3748911,7.71747437 70.3774672,7.70354325 70.3826194,7.68709996 C70.3877717,7.67065667 70.3903478,7.65718231 70.3903478,7.64599174 C70.3903478,7.49252106 70.3491299,7.35001256 70.2666943,7.21846626 C70.1840439,7.08691996 70.0915184,6.96108313 69.9884738,6.84027065 C69.8854292,6.71991492 69.7926891,6.59110916 69.7102534,6.45385339 C69.6278177,6.31682599 69.5865999,6.16609585 69.5865999,6.00166297 C69.5865999,5.97973859 69.589176,5.93885875 69.5943282,5.87833832 C69.5994805,5.81827464 69.6020566,5.77716642 69.6020566,5.75501366 L70.9931587,7.23490955 L70.9931587,7.07047667 C70.6941147,6.69799053 70.4109567,6.33349765 70.1430407,5.97699804 C69.8751248,5.62095519 69.6379075,5.25349339 69.432033,4.87529777 C69.2259438,4.49710215 69.0610724,4.09721053 68.9376336,3.67493777 C68.81398,3.25312176 68.7521533,2.78996916 68.7521533,2.28547996 C68.7521533,2.24185957 68.7570908,2.17037695 68.7673953,2.07171722 C68.7776997,1.97305749 68.7854281,1.87439777 68.7905803,1.77573804 C68.7957326,1.67707832 68.8034609,1.58412806 68.81398,1.49620215 C68.8238551,1.40850462 68.829222,1.34821256 68.829222,1.31532599 L68.9840036,1.15089311 L69.1383559,1.31532599 C69.1278367,1.26051503 69.1177469,1.17555804 69.1076572,1.06045503 C69.097138,0.945352014 69.0943472,0.822027356 69.0999288,0.690481055 C69.1048664,0.558934754 69.120323,0.430357379 69.1460842,0.304063795 C69.1718454,0.178226968 69.2207915,0.0768266941 69.2929228,-0.000137027397 L69.4477043,0.164295849 C69.5196209,0.273917767 69.6303938,0.435610096 69.7800232,0.649372836 C69.9292232,0.863135576 70.0992468,1.10453217 70.290094,1.37287749 C70.4805118,1.64167957 70.6814488,1.92646818 70.8926902,2.22792845 C71.1039317,2.52961711 71.304654,2.81440571 71.4955011,3.08297941 C71.6861337,3.35178149 71.8613095,3.59272133 72.0210286,3.80648407 C72.1807478,4.02024681 72.3018252,4.17645804 72.3842608,4.27511777 C72.6006545,4.56036313 72.8788749,4.85360176 73.2189221,5.15483366 C73.5589693,5.45652231 73.8861359,5.77716642 74.200422,6.11676599 C74.514708,6.45659393 74.7852001,6.81834626 75.0121129,7.20202297 C75.2383817,7.58592807 75.3521601,8.00774407 75.3521601,8.46815613 C75.3521601,8.68762834 75.3182412,8.88494779 75.2514769,9.06011448 C75.1842832,9.23573793 75.1069998,9.40839245 75.0196266,9.57807804 C74.9320386,9.7482204 74.8547552,9.92087492 74.7879909,10.0960416 C74.7205825,10.2714367 74.6873077,10.4689845 74.6873077,10.688 C74.6873077,10.7101527 74.6898838,10.7647353 74.6950361,10.8524328 C74.7001883,10.9403588 74.7027644,10.9949413 74.7027644,11.0168657 L77.021268,9.7014027 C77.0933992,9.69066889 77.1397693,9.68495941 77.1603782,9.68495941 C77.1809871,9.68495941 77.2119005,9.68792834 77.2531183,9.69318106 C77.2943362,9.69889053 77.3200973,9.7014027 77.3304018,9.7014027 L77.9486694,9.86583558 L78.0414095,9.86583558 C78.1135408,9.86583558 78.1828812,9.832949 78.2502895,9.76717585 C78.3170538,9.7014027 78.3737284,9.62489574 78.4203131,9.53696982 C78.4664685,9.44927229 78.5023195,9.35883421 78.52851,9.26565558 C78.5540564,9.17270533 78.566937,9.09871053 78.566937,9.04367119 L78.566937,8.74769202 L78.566937,8.22150681 L78.566937,7.71176489 L78.566937,7.39934243 C78.566937,7.38860861 78.5798176,7.35572204 78.6055787,7.3006827 C78.6311252,7.24587174 78.6596772,7.18306752 78.6905905,7.11158489 C78.7215039,7.04033065 78.7547787,6.96930478 78.791059,6.89782215 C78.8271246,6.82656791 78.8554619,6.7744975 78.8762855,6.74161092 C79.1336823,6.29216106 79.4222072,5.82649628 79.7416455,5.34393147 C80.0608691,4.86159503 80.3882504,4.38473969 80.7231453,3.91336544 C81.0580403,3.44221957 81.3852069,2.98706023 81.7046452,2.54857256 C82.0240834,2.11031327 82.3177605,1.69923108 82.5856765,1.31532599 C82.6475033,1.22762845 82.7065392,1.12074708 82.7634285,0.994681877 C82.820103,0.86884505 82.8765628,0.739810918 82.9334521,0.608264617 C82.9901266,0.476718315 83.0519533,0.356134206 83.1189323,0.246512288 C83.1859113,0.137118749 83.2657709,0.0549023105 83.3587257,-0.000137027397 C83.4512512,0.0985226987 83.5025588,0.2028919 83.5130779,0.312285438 C83.5231677,0.421907356 83.5287493,0.542491466 83.5287493,0.674037767 C83.5287493,0.849432836 83.5001974,1.030309 83.4435228,1.21666626 C83.3868483,1.4032519 83.3198693,1.58960916 83.2428005,1.77573804 C83.1653024,1.96232368 83.0805053,2.14319985 82.9875505,2.31836653 C82.8948103,2.49398998 82.8123746,2.65294176 82.7404581,2.79522188 C82.8430733,2.71871491 82.954061,2.59790243 83.0727769,2.43346955 C83.1908489,2.26903667 83.2990457,2.10209163 83.3971528,1.93194927 C83.4950451,1.76226368 83.582633,1.60308352 83.6599165,1.45509393 C83.7372,1.30710434 83.7912984,1.20593245 83.8224264,1.15089311 C83.9046474,1.24955284 83.9535936,1.33999092 83.9690503,1.42220736 C83.9847217,1.50442379 83.99245,1.60582407 83.99245,1.72640818 C83.99245,1.95661421 83.9664742,2.15690259 83.9149519,2.32658818 C83.8632149,2.49673053 83.7809939,2.70752434 83.6676448,2.95965475 C83.7605997,2.88314779 83.850549,2.77329749 83.9383516,2.630789 C84.0257248,2.48850889 84.0901277,2.37865859 84.1313456,2.30192325 C84.14165,2.35696259 84.1519545,2.46635612 84.1624736,2.630789 C84.1725634,2.79522188 84.1777156,2.9048438 84.1777156,2.95965475 C84.1777156,3.26659612 84.118465,3.57376587 83.9999637,3.88047886 C83.8814624,4.18764861 83.7294716,4.48362779 83.5439913,4.7684164 C83.3587257,5.05366176 83.1549979,5.32200708 82.9334521,5.57413749 C82.7119062,5.82649628 82.4929364,6.05099284 82.2767574,6.24831229 L82.4311096,6.24831229 L83.6676448,4.93284928 L83.6676448,5.09728215 C83.6676448,5.30579218 83.6238509,5.51133327 83.5364777,5.71390544 C83.4484604,5.91693437 83.3379021,6.0948416 83.2039441,6.24831229 C83.1524218,6.31408544 83.0545295,6.42667629 82.9104817,6.58539969 C82.7660046,6.74435147 82.611223,6.91175327 82.4465663,7.08691996 C82.2816949,7.26254341 82.1245519,7.42674791 81.9751372,7.58021859 C81.8257226,7.73391766 81.7203165,7.83805848 81.6584898,7.89264106 C81.6683649,7.89264106 81.6814601,7.89538161 81.6969168,7.9008627 C81.7125882,7.90657218 81.7252541,7.90908434 81.7355585,7.90908434 C81.745863,7.90908434 81.7716242,7.90383163 81.812842,7.89264106 C81.8437554,7.87094505 81.9055821,7.82960845 81.998537,7.7693164 C82.0910624,7.70925272 82.1863787,7.64347957 82.2844857,7.57199695 C82.3821634,7.5007427 82.4749036,7.43496955 82.5627062,7.3746775 C82.6500794,7.31461382 82.70933,7.26779613 82.7404581,7.23490955 C82.6681122,7.46511558 82.5704345,7.68458779 82.4465663,7.89264106 C82.3229128,8.1009227 82.1838026,8.30121108 82.0292357,8.49282106 C81.8746688,8.68488779 81.7125882,8.8685045 81.5425646,9.04367119 C81.372541,9.21906626 81.2046642,9.38372752 81.0402222,9.53696982 L81.2254878,9.53696982 C81.2254878,9.7014027 81.1713893,9.85761393 81.0631925,10.0056035 C80.9549957,10.1535931 80.8442227,10.2714367 80.7308737,10.3591342 C80.7514826,10.3591342 80.782396,10.381287 80.8236138,10.4249074 C80.864617,10.4689845 80.8854406,10.5018711 80.8854406,10.5235671 C80.8854406,10.611493 80.8674078,10.6827472 80.8313422,10.7373298 C80.7950619,10.7923692 80.7514826,10.841699 80.700175,10.8853194 C80.648438,10.9291682 80.5969157,10.9732453 80.5453934,11.0168657 C80.4938711,11.0607145 80.4526532,11.1155254 80.4217399,11.1812986 C80.3083908,11.4115046 80.1845226,11.633489 80.0507793,11.8472517 C79.9168213,12.0610145 79.7648305,12.2501123 79.5948069,12.4145452 C79.4247833,12.578978 79.2315747,12.7080122 79.015181,12.8009624 C78.7987874,12.8941411 78.5463281,12.9407304 78.2578032,12.9407304 L78.2578032,13.318926 L76.5575673,13.6477917 L76.5575673,13.7135649 C76.5575673,14.0645834 76.5908421,14.3466315 76.6582504,14.5603942 C76.7250147,14.7741569 76.8126026,14.9442993 76.9207995,15.0701361 C77.0289963,15.1962013 77.1423454,15.2896083 77.2608467,15.349672 C77.379348,15.4099641 77.492697,15.4565534 77.6008939,15.48944 C77.7090907,15.5223265 77.7964639,15.5579537 77.8636576,15.5963213 C77.9306366,15.6349174 77.9643408,15.69795 77.9643408,15.7854191 C77.9643408,15.8075719 77.96155,15.8374896 77.9563977,15.8758572 C77.9510308,15.9144533 77.9486694,15.9391182 77.9486694,15.949852 C77.8969324,15.8404585 77.8505623,15.7854191 77.8095592,15.7854191 C77.7887356,15.7854191 77.7657652,15.7911286 77.7402187,15.8018624 C77.7142429,15.8128246 77.6805387,15.8183057 77.6395356,15.8183057 L77.6395356,16.2787178 C77.6395356,16.2567934 77.618712,16.2239068 77.5777088,16.180058 C77.5362763,16.1364377 77.5055776,16.1142849 77.4849687,16.1142849 C77.45427,16.1142849 77.4023183,16.1170254 77.3304018,16.1225065 C77.2582706,16.128216 77.1809871,16.1364377 77.0985514,16.1471715 C77.0161157,16.158362 76.9386176,16.1663553 76.8667011,16.1718364 C76.7945698,16.1775459 76.7430475,16.180058 76.7123488,16.180058 L76.7123488,16.804903 C76.6709163,16.804903 76.619394,16.7941692 76.5575673,16.7720164 L76.4030004,16.6075835 C76.3617825,16.5968497 76.3360214,16.5911402 76.3257169,16.5911402 C76.2430665,16.5911402 76.1763022,16.6596539 76.1247799,16.7966813 C76.0730429,16.9339371 76.0114309,17.035109 75.9392996,17.1008822 C75.9289952,17.0789578 75.9058101,17.0490401 75.8699592,17.0104441 C75.8336789,16.9723048 75.8053417,16.9474115 75.7847327,16.9364493 L75.7074493,16.9364493 L75.6303805,16.9364493 C75.6095569,16.9474115 75.5580346,16.9723048 75.4755989,17.0104441 C75.3929486,17.0490401 75.3416409,17.0789578 75.321032,17.1008822 L75.321032,17.0186657 L75.321032,16.9364493 C75.321032,16.9257155 75.3287604,16.8871194 75.3444317,16.8213463 C75.3596737,16.7555731 75.3777066,16.6872878 75.3983155,16.6158052 C75.4189244,16.5447793 75.4369572,16.4760372 75.4524139,16.4102641 C75.4680853,16.3444909 75.4755989,16.3008705 75.4755989,16.2787178 C75.4755989,16.2567934 75.4547753,16.2239068 75.4139868,16.180058 C75.3725543,16.1364377 75.3416409,16.1142849 75.321032,16.1142849 C75.187074,16.3008705 75.0350832,16.4458912 74.8650597,16.550032 C74.6950361,16.6544012 74.5222217,16.7473515 74.3472605,16.8295679 C74.1720847,16.9117843 73.9941181,16.9969697 73.8142194,17.0844389 C73.6336767,17.1723648 73.4662292,17.2874678 73.3118769,17.4297479 L73.3118769,17.265315 C73.2908387,17.2874678 73.239531,17.3173854 73.1570954,17.3557531 C73.074445,17.3943492 73.0231374,17.4190141 73.0025285,17.4297479 L72.925245,17.4297479 L72.8481762,17.4297479 L73.0025285,17.265315 Z" id="Fill-21" fill="#F8941D" mask="url(#mask-6)"></path>
                <path d="M93.2813199,2.67075533 C92.6467369,2.67075533 92.1619979,2.88063562 91.8271029,3.30016784 C91.4917786,3.71992843 91.3245458,4.30183811 91.3245458,5.04589688 C91.3245458,5.39942756 91.3644756,5.72258384 91.4443351,6.01605085 C91.5244094,6.30951786 91.6431254,6.56004962 91.8004831,6.76833126 C91.9574114,6.97661291 92.1529815,7.13899037 92.3874079,7.25569204 C92.6216197,7.37262208 92.8957613,7.43085873 93.210262,7.43085873 C93.4058321,7.43085873 93.574997,7.42309384 93.7171127,7.40710731 C93.859443,7.39157754 93.9721481,7.37102343 94.0552278,7.34567336 L94.0552278,4.98925889 L95.1760525,4.98925889 L95.1760525,8.14043227 C95.0217003,8.20369325 94.7610833,8.27289208 94.3933429,8.34871391 C94.0256024,8.42430736 93.6016168,8.46221827 93.1213861,8.46221827 C92.6765769,8.46221827 92.2701947,8.38662482 91.902669,8.23520955 C91.5347139,8.08379428 91.2221452,7.86295179 90.9641044,7.57291046 C90.7062782,7.28264076 90.5059852,6.92614115 90.3636549,6.50341163 C90.2213245,6.08091049 90.1502667,5.59491998 90.1502667,5.04589688 C90.1502667,4.49710215 90.2288382,4.01156841 90.3859812,3.58883889 C90.5429095,3.16610937 90.7580152,2.80823948 91.0308687,2.51454409 C91.3035075,2.22130546 91.6238045,1.9990927 91.9915449,1.84767743 C92.3590707,1.69603377 92.7504255,1.62021195 93.165824,1.62021195 C93.4504848,1.62021195 93.7040174,1.64099443 93.926422,1.68187427 C94.1486119,1.72321087 94.3401032,1.76865829 94.500037,1.81913005 C94.6601855,1.86960181 94.7919967,1.92327087 94.8959,1.98013724 C94.9995886,2.03677523 95.0723639,2.07788345 95.1137964,2.10300514 L94.775896,3.0777267 C94.5979293,2.96422233 94.3770275,2.86807478 94.1131904,2.78928402 C93.8493532,2.71026489 93.5719915,2.67075533 93.2813199,2.67075533" id="Fill-22" fill="#F8941D" mask="url(#mask-6)"></path>
                <path d="M99.526016,5.85045324 C99.526016,5.35852489 99.4266209,4.96891032 99.2278307,4.68183792 C99.0292551,4.39476552 98.7521081,4.25111514 98.3961749,4.25111514 C98.0404563,4.25111514 97.7630946,4.39476552 97.5645191,4.68183792 C97.3657288,4.96891032 97.2665484,5.35852489 97.2665484,5.85045324 C97.2665484,6.34900459 97.3657288,6.74318673 97.5645191,7.03345644 C97.7630946,7.32349776 98.0404563,7.4687468 98.3961749,7.4687468 C98.7521081,7.4687468 99.0292551,7.32349776 99.2278307,7.03345644 C99.4266209,6.74318673 99.526016,6.34900459 99.526016,5.85045324 M100.629023,5.85045324 C100.629023,6.24166646 100.575568,6.59793769 100.468874,6.91995208 C100.36218,7.2415097 100.210833,7.51602126 100.015049,7.74302998 C99.8194784,7.97026708 99.5837639,8.14703242 99.3079049,8.27286925 C99.0322606,8.39916283 98.728279,8.46242381 98.3961749,8.46242381 C98.063856,8.46242381 97.7615919,8.39916283 97.488953,8.27286925 C97.2158848,8.14703242 96.981673,7.97026708 96.786103,7.74302998 C96.5903182,7.51602126 96.4376834,7.2415097 96.3281985,6.91995208 C96.2182843,6.59793769 96.1635418,6.24166646 96.1635418,5.85045324 C96.1635418,5.4594684 96.2182843,5.10433906 96.3281985,4.78597874 C96.4376834,4.46739004 96.5918209,4.19447715 96.7906112,3.96724004 C96.9891867,3.74023132 97.2249012,3.56506463 97.4977547,3.44196835 C97.7703936,3.31910046 98.0700816,3.25743813 98.3961749,3.25743813 C98.7222681,3.25743813 99.0232442,3.31910046 99.2991032,3.44196835 C99.5749622,3.56506463 99.810462,3.74023132 100.006247,3.96724004 C100.201817,4.19447715 100.354452,4.46739004 100.464366,4.78597874 C100.574065,5.10433906 100.629023,5.4594684 100.629023,5.85045324" id="Fill-23" fill="#F8941D" mask="url(#mask-6)"></path>
                <path d="M103.360005,8.42439871 C103.039708,8.41823248 102.774154,8.38032156 102.563771,8.31089435 C102.353388,8.24146713 102.185726,8.14235065 102.061214,8.01285976 C101.936702,7.88359725 101.849114,7.72281844 101.798879,7.53029494 C101.748216,7.33777145 101.723099,7.11852761 101.723099,6.87256344 L101.723099,1.17564939 L102.799485,0.986551585 L102.799485,6.65491825 C102.799485,6.7935443 102.80979,6.91024597 102.830613,7.00502325 C102.851437,7.09957216 102.888576,7.18018994 102.941816,7.24641985 C102.99527,7.31264976 103.067831,7.36312152 103.159712,7.39783513 C103.251594,7.43232035 103.368807,7.4590407 103.511137,7.47799615 L103.360005,8.42439871 Z" id="Fill-24" fill="#F8941D" mask="url(#mask-6)"></path>
                <path d="M106.277413,0.986460233 C106.526437,0.986460233 106.745836,1.01021165 106.93561,1.0574861 C107.125384,1.10476055 107.267714,1.14723905 107.362816,1.18514996 L107.158229,2.13155252 C107.057117,2.08108076 106.940118,2.03997254 106.806804,2.00845624 C106.673276,1.97693994 106.529442,1.96118179 106.375305,1.96118179 C106.203135,1.96118179 106.058013,1.98813051 105.939512,2.04157119 C105.820581,2.09501188 105.725909,2.16923505 105.654851,2.26401233 C105.583579,2.35856124 105.53313,2.47389263 105.503505,2.60932138 C105.473879,2.7449785 105.458852,2.89182619 105.458852,3.0494077 L105.458852,3.38055724 L107.149213,3.38055724 L107.149213,4.33632334 L105.458852,4.33632334 L105.458852,8.32975845 L104.38268,8.32975845 L104.38268,3.03045224 C104.38268,2.39327485 104.539608,1.89335322 104.854109,1.530459 C105.168395,1.16779316 105.642829,0.986460233 106.277413,0.986460233" id="Fill-25" fill="#F8941D" mask="url(#mask-6)"></path>
                <path d="M8.43692713,30.5383597 C9.25291157,28.1282761 10.0373386,25.8940444 10.7897789,23.8356645 C11.5417898,21.7779698 12.2113651,20.0310989 12.7982899,18.5952801 C13.3590243,19.9765163 14.0225886,21.7101412 14.7876948,23.7952415 C15.552801,25.8807984 16.3430243,28.1282761 17.1596527,30.5383597 L8.43692713,30.5383597 Z M10.5884126,13.1518668 C9.69643272,15.1563492 8.82978467,17.187552 7.9886831,19.2454751 C7.14758153,21.3036266 6.30046903,23.4700298 5.44691623,25.7449129 C4.90163855,27.1983169 4.34755913,28.7131548 3.78661007,30.2770941 C9.72004711,31.0394232 16.0319584,31.6217896 22.6259543,31.9983866 C21.843674,29.8137131 21.0796412,27.7247305 20.3355733,25.7449129 C19.4807324,23.4700298 18.6331906,21.3036266 17.791445,19.2454751 C16.949914,17.187552 16.0824073,15.1563492 15.1899981,13.1518668 L10.5884126,13.1518668 Z" id="Fill-26" fill="#4C9ED0" mask="url(#mask-6)"></path>
            </g>
        </g>
    </g>
</svg>